HIERARCHY
ROOT root
{
	OFFSET 0.000000 0.000000 0.000000
	CHANNELS 6 Xposition Yposition Zposition Zrotation Yrotation Xrotation
	JOINT lhip
	{
		OFFSET 0.058581 -0.082280 -0.017664
		CHANNELS 3 Zrotation Yrotation Xrotation
		JOINT lknee
		{
			OFFSET 0.043451 -0.386469 0.008037
			CHANNELS 3 Zrotation Yrotation Xrotation
			JOINT lankle
			{
				OFFSET -0.014790 -0.426874 -0.037428
				CHANNELS 3 Zrotation Yrotation Xrotation
				JOINT ltoe
				{
					OFFSET 0.041054 -0.060286 0.122042
					CHANNELS 3 Zrotation Yrotation Xrotation
					End Site
					{
						OFFSET 0.000000 0.000000 0.000000
					}
				}
			}
		}
	}
	JOINT rhip
	{
		OFFSET -0.060310 -0.090513 -0.013543
		CHANNELS 3 Zrotation Yrotation Xrotation
		JOINT rknee
		{
			OFFSET -0.043257 -0.383688 -0.004843
			CHANNELS 3 Zrotation Yrotation Xrotation
			JOINT rankle
			{
				OFFSET 0.019056 -0.420046 -0.034562
				CHANNELS 3 Zrotation Yrotation Xrotation
				JOINT rtoe
				{
					OFFSET -0.034840 -0.062106 0.130323
					CHANNELS 3 Zrotation Yrotation Xrotation
					End Site
					{
						OFFSET 0.000000 0.000000 0.000000
					}
				}
			}
		}
	}
	JOINT lowerback
	{
		OFFSET 0.004439 0.124404 -0.038385
		CHANNELS 3 Zrotation Yrotation Xrotation
		JOINT upperback
		{
			OFFSET 0.004488 0.137956 0.026820
			CHANNELS 3 Zrotation Yrotation Xrotation
			JOINT chest
			{
				OFFSET -0.002265 0.056032 0.002855
				CHANNELS 3 Zrotation Yrotation Xrotation
				JOINT lowerneck
				{
					OFFSET -0.013390 0.211636 -0.033468
					CHANNELS 3 Zrotation Yrotation Xrotation
					JOINT upperneck
					{
						OFFSET 0.010113 0.088937 0.050410
						CHANNELS 3 Zrotation Yrotation Xrotation
						End Site
						{
							OFFSET 0.000000 0.000000 0.000000
						}
					}
				}
				JOINT lclavicle
				{
					OFFSET 0.071702 0.114000 -0.018898
					CHANNELS 3 Zrotation Yrotation Xrotation
					JOINT lshoulder
					{
						OFFSET 0.122921 0.045205 -0.019046
						CHANNELS 3 Zrotation Yrotation Xrotation
						JOINT lelbow
						{
							OFFSET 0.255332 -0.015649 -0.022946
							CHANNELS 3 Zrotation Yrotation Xrotation
							JOINT lwrist
							{
								OFFSET 0.265709 0.012698 -0.007375
								CHANNELS 3 Zrotation Yrotation Xrotation
								End Site
								{
									OFFSET 0.000000 0.000000 0.000000
								}
							}
						}
					}
				}
				JOINT rclavicle
				{
					OFFSET -0.082954 0.112472 -0.023707
					CHANNELS 3 Zrotation Yrotation Xrotation
					JOINT rshoulder
					{
						OFFSET -0.113228 0.046853 -0.008472
						CHANNELS 3 Zrotation Yrotation Xrotation
						JOINT relbow
						{
							OFFSET -0.260127 -0.014369 -0.031269
							CHANNELS 3 Zrotation Yrotation Xrotation
							JOINT rwrist
							{
								OFFSET -0.269108 0.006794 -0.006027
								CHANNELS 3 Zrotation Yrotation Xrotation
								End Site
								{
									OFFSET 0.000000 0.000000 0.000000
								}
							}
						}
					}
				}
			}
		}
	}
}
MOTION
Frames: 14
Frame Time: 0.033333
2.039187 0.647278 0.983753 -94.223121 2.684640 85.262557 1.743366 -1.471605 7.625182 -2.776174 -8.447956 6.151326 4.731186 10.022850 -21.408206 0.000000 -0.000000 0.000000 2.743830 -1.259509 5.203459 2.163069 -1.760811 9.411913 3.082613 -2.002121 -15.652438 0.000000 -0.000000 0.000000 -1.622236 3.630130 7.374298 2.682813 -0.936065 3.980536 1.243308 1.142889 2.120565 2.700830 -0.627158 15.820994 2.857070 -6.085734 12.280768 -21.372262 3.827280 4.806991 -67.293597 -6.027653 10.624317 13.017292 -30.307440 13.442373 -12.375946 -8.054575 -3.969110 21.305074 -4.198200 5.733226 67.896149 -3.467428 4.645798 -23.145055 23.074349 -3.594605 11.764124 3.198817 -8.519667 
2.038961 0.646998 0.983446 -94.251452 2.628408 85.355787 1.698901 -1.401363 7.521192 -2.804284 -8.367317 6.181186 4.835922 9.946580 -21.429098 0.000000 -0.000000 0.000000 2.624062 -1.286414 5.075249 2.220686 -1.779679 9.525342 3.062272 -1.965752 -15.735718 0.000000 -0.000000 0.000000 -1.727716 3.662660 7.089485 2.815544 -0.921189 4.203020 1.251957 1.071244 2.201373 2.766207 -0.524389 15.873837 2.519944 -6.167461 12.595156 -21.462837 4.015659 4.729024 -67.380233 -5.850775 10.836628 13.125696 -29.968734 13.455478 -12.562975 -7.919135 -4.072511 21.542201 -4.291609 5.714459 67.840606 -3.475245 4.835045 -23.203801 23.211815 -3.491518 12.087090 3.300499 -8.693693 
2.038672 0.646591 0.983083 -94.238709 2.576569 85.448303 1.628500 -1.388752 7.425669 -2.813954 -8.397115 6.202231 4.863680 9.922654 -21.399459 0.000000 -0.000000 0.000000 2.505427 -1.336199 4.978178 2.287461 -1.785697 9.567994 3.006548 -1.982725 -15.815310 0.000000 -0.000000 0.000000 -1.793852 3.712808 6.889393 2.891674 -0.971953 4.335034 1.243709 1.027953 2.195338 2.819130 -0.365985 15.916182 2.377833 -6.182449 12.767314 -21.572679 4.170498 4.823632 -67.389929 -5.674772 10.850432 13.085469 -29.730644 13.605640 -12.556582 -7.841501 -3.994679 21.839023 -4.464106 5.684497 67.762567 -3.511257 4.963687 -23.294339 23.477455 -3.423165 11.960484 3.163776 -8.677264 
2.038494 0.645743 0.982767 -94.222622 2.506489 85.527479 1.464950 -1.453382 7.330525 -2.771629 -8.309201 6.223174 4.815731 9.916645 -21.380390 0.000000 -0.000000 0.000000 2.324812 -1.376802 4.832325 2.332561 -1.806448 9.700372 3.038077 -1.880093 -15.739975 0.000000 -0.000000 0.000000 -1.789378 3.726943 6.784317 2.931648 -1.018725 4.416462 1.201944 0.959482 2.298538 3.102365 -0.311288 15.679431 2.291523 -6.295407 13.191490 -21.680105 4.406010 4.730210 -67.532529 -5.375911 10.904715 13.148702 -29.265394 13.725395 -12.785493 -7.895749 -3.829972 22.115108 -4.602377 5.501357 67.767128 -3.454335 5.206508 -23.217340 23.421757 -3.118725 12.214156 3.307780 -8.412499 
2.038442 0.645542 0.982677 -94.223213 2.521391 85.591941 1.465577 -1.517021 7.237135 -2.786581 -8.243223 6.279493 4.857188 9.937561 -21.388900 0.000000 -0.000000 0.000000 2.320635 -1.409888 4.758767 2.351123 -1.766191 9.708429 3.026289 -1.877785 -15.702208 0.000000 -0.000000 0.000000 -1.766983 3.745680 6.679388 2.964767 -1.038751 4.466219 1.194922 0.939026 2.331786 3.163860 -0.362456 15.648478 2.293338 -6.347019 13.230856 -21.719103 4.476622 4.720639 -67.591971 -5.319337 10.941771 13.140820 -29.052150 13.798535 -12.601988 -7.970529 -3.849937 22.198972 -4.630582 5.458102 67.776228 -3.473894 5.366433 -23.075935 23.374317 -2.580902 11.909965 3.510411 -7.815029 
2.038119 0.645383 0.982388 -94.323432 2.553337 85.697061 1.517016 -1.484644 7.167202 -2.819054 -8.152598 6.227259 4.875107 9.928926 -21.415100 0.000000 -0.000000 0.000000 2.354095 -1.339052 4.650617 2.356235 -1.695537 9.724357 3.006162 -1.899782 -15.686906 0.000000 -0.000000 0.000000 -1.791547 3.756290 6.496028 3.054807 -0.980004 4.609304 1.227277 0.950909 2.291315 3.222101 -0.397455 15.794417 2.193484 -6.346908 13.335173 -21.802097 4.611732 4.732227 -67.687586 -5.068536 10.898470 13.244797 -28.945368 13.731894 -12.922862 -7.548939 -3.902215 22.316813 -4.751795 5.428096 67.789858 -3.302589 5.325441 -23.305204 23.391360 -2.919354 12.284076 3.313984 -8.136670 
2.037974 0.645188 0.982246 -94.380309 2.563515 85.667120 1.508786 -1.529803 7.251397 -2.828328 -8.167059 6.174447 4.878731 9.964371 -21.334815 0.000000 -0.000000 0.000000 2.343434 -1.288399 4.716057 2.378719 -1.703351 9.671139 3.021830 -1.917232 -15.683175 0.000000 -0.000000 0.000000 -1.802417 3.771988 6.540952 3.111715 -0.954945 4.622062 1.261160 0.942658 2.353000 3.292726 -0.387194 15.722318 2.083825 -6.435565 13.523201 -21.825004 4.702445 4.737963 -67.773174 -4.913777 10.914811 13.215341 -28.706606 13.947810 -12.739388 -7.615464 -3.829653 22.409791 -4.821140 5.381734 67.788956 -3.284501 5.467445 -23.232095 23.484933 -2.489338 12.042894 3.262211 -7.801156 
2.037791 0.644937 0.982105 -94.435034 2.551255 85.696027 1.475977 -1.557269 7.288370 -2.826057 -8.103457 6.061835 4.915795 9.980501 -21.315333 0.000000 -0.000000 0.000000 2.318797 -1.227365 4.710903 2.388019 -1.674053 9.624487 2.991734 -1.977317 -15.661169 0.000000 -0.000000 0.000000 -1.786625 3.770466 6.433342 3.146527 -0.950380 4.667472 1.229841 0.912941 2.420471 3.301720 -0.360829 15.778358 1.845627 -6.430874 13.864497 -21.890406 4.746871 4.816510 -67.726580 -4.884988 10.902598 13.210956 -28.476409 14.028204 -12.979529 -7.731892 -3.766635 22.528140 -4.850847 5.375642 67.753335 -3.057022 5.527321 -23.286092 23.388407 -2.561581 12.281907 3.348798 -7.827519 
2.037757 0.644445 0.981930 -94.400403 2.539562 85.742695 1.446946 -1.469233 7.263576 -2.807747 -8.146677 6.001829 4.923910 9.897128 -21.311067 0.000000 -0.000000 0.000000 2.244474 -1.255552 4.695614 2.430379 -1.722080 9.579751 3.001280 -1.913324 -15.622077 0.000000 -0.000000 0.000000 -1.742828 3.748428 6.315734 3.166563 -1.012534 4.808773 1.187707 0.931939 2.468558 3.310084 -0.150952 15.780928 1.809192 -6.369019 13.906418 -21.940801 4.720901 4.773748 -67.703643 -4.862961 10.882764 13.222870 -28.343566 14.054151 -13.132074 -7.743617 -3.582136 22.668330 -4.884453 5.406555 67.717163 -2.930193 5.526870 -23.535531 23.629136 -2.691994 12.358093 3.398972 -7.743213 
2.037736 0.643954 0.981852 -94.311885 2.535844 85.725238 1.389101 -1.522998 7.269264 -2.767983 -8.122250 6.006375 4.929849 9.894433 -21.336772 0.000000 -0.000000 0.000000 2.213841 -1.297469 4.760798 2.437055 -1.716168 9.493917 3.025580 -1.939408 -15.659044 0.000000 -0.000000 0.000000 -1.681350 3.775295 6.333986 3.188978 -1.099630 4.903643 1.167139 0.886093 2.487768 3.350386 -0.174908 15.631225 1.799476 -6.467595 13.912372 -22.014332 4.700584 4.650384 -67.692146 -4.850914 10.908571 13.233758 -28.186002 14.057913 -12.975209 -7.686578 -3.453540 22.757847 -4.906777 5.297877 67.622870 -2.967066 5.566479 -23.686948 23.941227 -2.787515 12.147589 3.396168 -7.524853 
2.037525 0.643621 0.981819 -94.358188 2.537820 85.612007 1.382680 -1.525501 7.511144 -2.759348 -8.058534 5.798593 4.857995 9.850867 -21.300104 0.000000 -0.000000 0.000000 2.205061 -1.282598 4.948766 2.422279 -1.667924 9.380664 3.036966 -1.962662 -15.687063 0.000000 -0.000000 0.000000 -1.629257 3.795626 6.394206 3.194834 -1.069416 4.978252 1.131327 0.889480 2.509136 3.430161 -0.131760 15.591952 1.769894 -6.575219 14.301804 -22.016809 4.579105 4.687773 -67.702460 -4.910961 10.940303 13.360751 -28.052278 13.886007 -12.903762 -7.951973 -3.411382 22.808260 -4.806585 5.281505 67.564140 -2.891807 5.607382 -23.695260 23.828961 -2.839853 12.031893 3.446717 -7.468299 
2.037596 0.643255 0.981694 -94.265933 2.541407 85.618357 1.399410 -1.563392 7.514725 -2.814550 -8.127064 5.754572 4.918409 9.850772 -21.261994 0.000000 -0.000000 0.000000 2.192432 -1.297278 4.964397 2.438632 -1.687533 9.329098 2.972791 -2.046210 -15.664281 0.000000 -0.000000 0.000000 -1.613951 3.803179 6.370350 3.230030 -1.084340 4.992277 1.125499 0.846688 2.470903 3.429628 0.012048 15.893894 1.666089 -6.449845 14.758786 -22.044390 4.454648 4.842545 -67.673461 -5.092821 10.953758 13.421538 -28.100995 13.750928 -13.012672 -8.041550 -3.555991 22.892915 -4.808061 5.374126 67.406611 -2.767063 5.606956 -23.741628 23.822904 -2.876174 12.001866 3.475560 -7.408204 
2.037749 0.642954 0.981550 -94.159251 2.597147 85.679284 1.499498 -1.600953 7.458417 -2.886839 -8.138733 5.655632 4.860933 9.772097 -21.152322 0.000000 -0.000000 0.000000 2.242488 -1.240132 4.935528 2.475577 -1.752979 9.238554 2.955718 -2.144451 -15.586694 0.000000 -0.000000 0.000000 -1.594790 3.763372 6.292792 3.293833 -1.118659 5.076980 1.129486 0.859606 2.475082 3.471258 0.139521 15.812935 1.609756 -6.473232 14.927090 -22.062415 4.388922 4.781433 -67.680582 -5.218594 11.045633 13.482774 -28.295929 13.738565 -13.198041 -8.036741 -3.530464 23.001523 -4.854461 5.298068 67.229610 -2.733301 5.633557 -23.958556 24.015062 -2.968078 12.155911 3.494779 -7.359618 
2.037774 0.642502 0.981395 -94.080588 2.621140 85.703381 1.519313 -1.536304 7.418076 -2.893668 -8.192613 5.645486 4.889776 9.753023 -21.226390 0.000000 -0.000000 0.000000 2.225632 -1.268794 4.919257 2.496536 -1.794879 9.244425 2.997378 -2.149201 -15.626401 0.000000 -0.000000 0.000000 -1.551089 3.729278 6.227187 3.333626 -1.144180 5.099098 1.117883 0.861785 2.522852 3.456660 0.207897 15.839805 1.517716 -6.481517 15.135516 -22.141859 4.325086 4.768372 -67.620531 -5.446082 11.097732 13.507869 -28.651532 13.796123 -13.301739 -7.871979 -3.245529 23.123594 -4.884272 5.332618 67.007860 -2.638778 5.578607 -24.072850 24.168726 -3.225057 12.197642 3.509171 -7.355846 
